<svg xmlns="http://www.w3.org/2000/svg" width="860" height="260" viewBox="0 0 860 260" role="img" aria-label="GitHub statistics for pavan-sai-ch">
  <defs>
    <linearGradient id="divider" x1="0" y1="0" x2="0" y2="1">
      <stop offset="0%" stop-color="#A9542D" stop-opacity="0"/>
      <stop offset="50%" stop-color="#A9542D" stop-opacity="0.5"/>
      <stop offset="100%" stop-color="#A9542D" stop-opacity="0"/>
    </linearGradient>
  </defs>

  <g font-family="'Helvetica Neue', Helvetica, Arial, sans-serif">
    <g transform="translate(28, 40)">
      <text x="0" y="0" fill="#A9542D" font-size="12" font-weight="700" letter-spacing="2.5">ACTIVITY</text>
      
    <text x="0" y="38" fill="#6B6259" font-size="14">Total stars earned</text>
    <text x="250" y="38" fill="#1F1B16" font-size="16" font-weight="700" text-anchor="end">2</text>
    <line x1="0" y1="50" x2="250" y2="50" stroke="rgba(31,27,22,0.14)" stroke-width="1"/>
      
    <text x="0" y="76" fill="#6B6259" font-size="14">Commits (last year)</text>
    <text x="250" y="76" fill="#1F1B16" font-size="16" font-weight="700" text-anchor="end">531</text>
    <line x1="0" y1="88" x2="250" y2="88" stroke="rgba(31,27,22,0.14)" stroke-width="1"/>
      
    <text x="0" y="114" fill="#6B6259" font-size="14">Pull requests</text>
    <text x="250" y="114" fill="#1F1B16" font-size="16" font-weight="700" text-anchor="end">56</text>
    <line x1="0" y1="126" x2="250" y2="126" stroke="rgba(31,27,22,0.14)" stroke-width="1"/>
      
    <text x="0" y="152" fill="#6B6259" font-size="14">Issues opened</text>
    <text x="250" y="152" fill="#1F1B16" font-size="16" font-weight="700" text-anchor="end">3</text>
    <line x1="0" y1="164" x2="250" y2="164" stroke="rgba(31,27,22,0.14)" stroke-width="1"/>
      
    <text x="0" y="190" fill="#6B6259" font-size="14">Public repositories</text>
    <text x="250" y="190" fill="#1F1B16" font-size="16" font-weight="700" text-anchor="end">17</text>
    <line x1="0" y1="202" x2="250" y2="202" stroke="rgba(31,27,22,0.14)" stroke-width="1"/>
    </g>

    <line x1="430" y1="30" x2="430" y2="230" stroke="url(#divider)" stroke-width="1.5"/>

    <g transform="translate(470, 40)">
      <text x="0" y="0" fill="#A9542D" font-size="12" font-weight="700" letter-spacing="2.5">TOP LANGUAGES BY REPO</text>
      <g transform="translate(0, 22)">
        <rect x="0.0" y="0" width="137.1" height="10" rx="5" fill="#B8952B"/>
      <rect x="137.1" y="0" width="68.6" height="10" rx="0" fill="#3178C6"/>
      <rect x="205.7" y="0" width="45.7" height="10" rx="0" fill="#3572A5"/>
      <rect x="251.4" y="0" width="22.9" height="10" rx="0" fill="#F05138"/>
      <rect x="274.3" y="0" width="22.9" height="10" rx="0" fill="#4F5D95"/>
      <rect x="297.1" y="0" width="22.9" height="10" rx="5" fill="#DA5B0B"/>
      <circle cx="5" cy="36" r="5" fill="#B8952B"/>
      <text x="18" y="40" fill="#6B6259" font-size="13">JavaScript</text>
      <text x="150" y="40" fill="#1F1B16" font-size="13" text-anchor="end">42.9%</text>
      <circle cx="170" cy="36" r="5" fill="#3178C6"/>
      <text x="183" y="40" fill="#6B6259" font-size="13">TypeScript</text>
      <text x="315" y="40" fill="#1F1B16" font-size="13" text-anchor="end">21.4%</text>
      <circle cx="5" cy="62" r="5" fill="#3572A5"/>
      <text x="18" y="66" fill="#6B6259" font-size="13">Python</text>
      <text x="150" y="66" fill="#1F1B16" font-size="13" text-anchor="end">14.3%</text>
      <circle cx="170" cy="62" r="5" fill="#F05138"/>
      <text x="183" y="66" fill="#6B6259" font-size="13">Swift</text>
      <text x="315" y="66" fill="#1F1B16" font-size="13" text-anchor="end">7.1%</text>
      <circle cx="5" cy="88" r="5" fill="#4F5D95"/>
      <text x="18" y="92" fill="#6B6259" font-size="13">PHP</text>
      <text x="150" y="92" fill="#1F1B16" font-size="13" text-anchor="end">7.1%</text>
      <circle cx="170" cy="88" r="5" fill="#DA5B0B"/>
      <text x="183" y="92" fill="#6B6259" font-size="13">Jupyter Note…</text>
      <text x="315" y="92" fill="#1F1B16" font-size="13" text-anchor="end">7.1%</text>
      </g>
    </g>

    <text x="832" y="240" fill="#6B6259" font-size="10.5" text-anchor="end" opacity="0.7">updated 2026-07-25</text>
  </g>
</svg>
